<?xml version="1.0" encoding="UTF-8"?>
<svg id="Layer_2" data-name="Layer 2" xmlns="http://www.w3.org/2000/svg" viewBox="0 0 387.7 95.79">
  <defs>
    <style>
      .cls-1 {
        fill: #37214c;
      }

      .cls-1, .cls-2, .cls-3, .cls-4 {
        stroke-width: 0px;
      }

      .cls-5 {
        stroke: #fff;
      }

      .cls-5, .cls-6 {
        fill: none;
        stroke-miterlimit: 10;
      }

      .cls-2 {
        fill: #f8485e;
      }

      .cls-3 {
        fill: #00c1d4;
      }

      .cls-4 {
        fill: #512d6d;
      }

      .cls-6 {
        stroke: #f8485e;
        stroke-width: 4px;
      }
    </style>
  </defs>
  <g id="Layer_1-2" data-name="Layer 1">
    <g>
      <g>
        <g>
          <path class="cls-2" d="M149.9,94.35c-1.16,0-2.22-.19-3.2-.57-.97-.38-1.82-.91-2.53-1.61s-1.27-1.5-1.67-2.43c-.4-.93-.6-1.95-.6-3.07s.2-2.14.6-3.07c.4-.93.96-1.74,1.68-2.43.72-.69,1.57-1.23,2.54-1.61.97-.38,2.05-.57,3.22-.57s2.27.19,3.26.58c.99.39,1.82.96,2.51,1.74l-1.33,1.33c-.61-.6-1.28-1.04-2.01-1.32-.72-.28-1.5-.42-2.35-.42s-1.66.14-2.39.43c-.74.29-1.37.69-1.91,1.2-.54.51-.95,1.13-1.24,1.83-.29.71-.44,1.48-.44,2.31s.15,1.58.44,2.28c.29.71.71,1.32,1.24,1.85.54.52,1.17.93,1.9,1.21.73.29,1.52.43,2.38.43.8,0,1.57-.13,2.31-.38.74-.25,1.42-.67,2.05-1.25l1.22,1.63c-.74.63-1.61,1.1-2.61,1.43-.99.32-2.02.48-3.08.48ZM153.52,92.16v-5.58h2.06v5.86l-2.06-.28Z"/>
          <path class="cls-2" d="M159.68,94.18v-15.01h2.15v13.15h8.13v1.87h-10.27Z"/>
          <path class="cls-2" d="M179.19,94.35c-1.14,0-2.21-.19-3.19-.58-.98-.39-1.83-.93-2.54-1.62-.71-.69-1.27-1.5-1.67-2.43-.4-.93-.6-1.95-.6-3.05s.2-2.12.6-3.05c.4-.93.96-1.74,1.67-2.43.71-.69,1.56-1.23,2.53-1.62.97-.39,2.04-.58,3.2-.58s2.2.19,3.17.57c.97.38,1.82.91,2.53,1.61.71.69,1.27,1.51,1.66,2.45s.59,1.96.59,3.06-.2,2.14-.59,3.07-.95,1.74-1.66,2.43-1.56,1.23-2.53,1.61c-.97.38-2.03.57-3.17.57ZM179.17,92.44c.84,0,1.62-.14,2.33-.43.71-.29,1.32-.69,1.85-1.21s.93-1.13,1.22-1.83c.29-.7.44-1.47.44-2.3s-.15-1.59-.44-2.28c-.29-.69-.7-1.3-1.22-1.83s-1.14-.94-1.85-1.22c-.71-.29-1.48-.43-2.33-.43s-1.6.14-2.31.43c-.71.29-1.33.69-1.86,1.22s-.94,1.14-1.23,1.83c-.29.69-.44,1.46-.44,2.28s.15,1.59.44,2.3c.29.7.7,1.31,1.23,1.83s1.15.93,1.86,1.21c.71.29,1.48.43,2.31.43Z"/>
          <path class="cls-2" d="M190.43,94.18v-15.01h6.74c1.73,0,3.06.35,3.99,1.04.93.69,1.39,1.64,1.39,2.84,0,.82-.18,1.5-.55,2.06-.37.56-.85.99-1.47,1.29s-1.28.45-2,.45l.39-.64c.86,0,1.62.15,2.27.45.66.3,1.18.74,1.57,1.32s.58,1.3.58,2.16c0,1.29-.48,2.28-1.45,2.99-.96.71-2.4,1.06-4.3,1.06h-7.16ZM192.58,92.44h4.93c1.19,0,2.09-.2,2.72-.6.63-.4.94-1.03.94-1.89s-.32-1.51-.94-1.91c-.63-.4-1.54-.6-2.72-.6h-5.13v-1.74h4.59c1.09,0,1.93-.2,2.53-.6.6-.4.9-1,.9-1.8s-.3-1.4-.9-1.8c-.6-.4-1.44-.6-2.53-.6h-4.4v11.54Z"/>
          <path class="cls-2" d="M204.4,94.18l6.8-15.01h2.12l6.82,15.01h-2.25l-6.07-13.81h.86l-6.07,13.81h-2.21ZM207.29,90.43l.58-1.72h8.45l.62,1.72h-9.65Z"/>
          <path class="cls-2" d="M222.37,94.18v-15.01h2.15v13.15h8.13v1.87h-10.27Z"/>
          <path class="cls-2" d="M235.11,94.18v-15.01h2.15v15.01h-2.15Z"/>
          <path class="cls-2" d="M246.14,94.35c-1.14,0-2.24-.17-3.28-.53-1.04-.35-1.87-.8-2.47-1.36l.79-1.67c.57.5,1.3.92,2.19,1.24s1.81.49,2.77.49c.87,0,1.58-.1,2.12-.3.54-.2.94-.48,1.2-.83.26-.35.39-.75.39-1.19,0-.52-.17-.93-.5-1.24-.34-.31-.77-.57-1.31-.76-.54-.19-1.13-.36-1.77-.5-.64-.14-1.29-.31-1.94-.5-.65-.19-1.24-.44-1.78-.74-.54-.3-.97-.7-1.3-1.21s-.49-1.16-.49-1.96.2-1.48.61-2.13,1.04-1.17,1.89-1.57,1.93-.59,3.25-.59c.87,0,1.74.11,2.6.34.86.23,1.6.56,2.23.99l-.71,1.72c-.64-.43-1.32-.74-2.04-.93-.72-.19-1.41-.29-2.08-.29-.84,0-1.54.11-2.08.32-.54.21-.94.5-1.19.86-.25.36-.37.76-.37,1.2,0,.53.17.95.5,1.27.34.32.77.57,1.31.75s1.13.35,1.77.5c.64.15,1.29.32,1.94.5s1.24.43,1.78.73c.54.3.97.7,1.3,1.2.33.5.49,1.14.49,1.93s-.21,1.46-.62,2.11c-.41.65-1.05,1.17-1.92,1.57-.87.39-1.96.59-3.27.59Z"/>
          <path class="cls-2" d="M257.23,92.31h8.75v1.87h-10.9v-15.01h10.6v1.87h-8.45v11.28ZM257.03,85.64h7.72v1.82h-7.72v-1.82Z"/>
          <path class="cls-2" d="M275.22,94.18v-15.01h2.15v13.15h8.13v1.87h-10.27Z"/>
          <path class="cls-2" d="M290.11,92.31h8.75v1.87h-10.9v-15.01h10.6v1.87h-8.45v11.28ZM289.91,85.64h7.72v1.82h-7.72v-1.82Z"/>
          <path class="cls-2" d="M300.06,94.18l6.8-15.01h2.12l6.82,15.01h-2.25l-6.07-13.81h.86l-6.07,13.81h-2.21ZM302.96,90.43l.58-1.72h8.45l.62,1.72h-9.65Z"/>
          <path class="cls-2" d="M318.03,94.18v-15.01h5.86c1.32,0,2.44.21,3.37.62.93.42,1.64,1.02,2.14,1.8.5.79.75,1.72.75,2.81s-.25,2.02-.75,2.8c-.5.78-1.21,1.38-2.14,1.79-.93.41-2.05.62-3.37.62h-4.68l.97-.99v5.56h-2.15ZM320.18,88.84l-.97-1.05h4.61c1.37,0,2.41-.3,3.12-.89.71-.59,1.06-1.43,1.06-2.5s-.35-1.9-1.06-2.49c-.71-.59-1.75-.88-3.12-.88h-4.61l.97-1.07v8.88ZM328.07,94.18l-3.82-5.45h2.3l3.86,5.45h-2.34Z"/>
          <path class="cls-2" d="M333.63,94.18v-15.01h1.76l9.93,12.33h-.92v-12.33h2.14v15.01h-1.76l-9.93-12.33h.92v12.33h-2.15Z"/>
          <path class="cls-2" d="M351.04,94.18v-15.01h2.15v15.01h-2.15Z"/>
          <path class="cls-2" d="M357.69,94.18v-15.01h1.76l9.93,12.33h-.92v-12.33h2.14v15.01h-1.76l-9.93-12.33h.92v12.33h-2.15Z"/>
          <path class="cls-2" d="M381.89,94.35c-1.16,0-2.22-.19-3.2-.57-.97-.38-1.82-.91-2.53-1.61s-1.27-1.5-1.67-2.43c-.4-.93-.6-1.95-.6-3.07s.2-2.14.6-3.07c.4-.93.96-1.74,1.68-2.43.72-.69,1.57-1.23,2.54-1.61.97-.38,2.05-.57,3.22-.57s2.27.19,3.26.58c.99.39,1.82.96,2.51,1.74l-1.33,1.33c-.61-.6-1.28-1.04-2.01-1.32-.72-.28-1.5-.42-2.35-.42s-1.66.14-2.39.43c-.74.29-1.37.69-1.91,1.2-.54.51-.95,1.13-1.24,1.83-.29.71-.44,1.48-.44,2.31s.15,1.58.44,2.28c.29.71.71,1.32,1.24,1.85.54.52,1.17.93,1.9,1.21.73.29,1.52.43,2.38.43.8,0,1.57-.13,2.31-.38.74-.25,1.42-.67,2.05-1.25l1.22,1.63c-.74.63-1.61,1.1-2.61,1.43-.99.32-2.02.48-3.08.48ZM385.51,92.16v-5.58h2.06v5.86l-2.06-.28Z"/>
        </g>
        <g>
          <path class="cls-4" d="M155.35,61.2h-13.45V3.44h13.45v57.76ZM182.49,37.52h-28.22v-11.31h28.22v11.31ZM181.5,3.44h13.37v57.76h-13.37V3.44Z"/>
          <path class="cls-4" d="M200.98,61.2L226.64,3.44h13.2l25.91,57.76h-14.03l-21.21-51h5.36l-21.21,51h-13.7ZM213.93,48.82l3.38-10.15h29.87l3.47,10.15h-36.72Z"/>
          <path class="cls-4" d="M286.14,61.2v-23.6l3.05,8.09-25.5-42.25h14.28l19.47,32.35h-8.17l19.56-32.35h13.04l-25.33,42.25,3.05-8.09v23.6h-13.45Z"/>
          <path class="cls-4" d="M319.97,61.2l25.66-57.76h13.2l25.91,57.76h-14.03l-21.21-51h5.36l-21.21,51h-13.7ZM332.93,48.82l3.38-10.15h29.87l3.47,10.15h-36.72Z"/>
        </g>
      </g>
      <g>
        <circle class="cls-6" cx="58.71" cy="46.7" r="44.7"/>
        <circle class="cls-4" cx="58.71" cy="46.7" r="39.93"/>
        <g>
          <path class="cls-2" d="M5.2,71.51l.61,4.82.74,5.81.62,4.87.85,6.66h43.98c0,.58.24,1.11.62,1.49.33.34.77.57,1.27.61.05,0,.09,0,.14,0h5.45v-6.88c0-.64-.04-1.27-.11-1.89-.04-.32-.08-.62-.15-.93,0-.08-.03-.15-.05-.23-1.4-7.1-7.69-12.46-15.2-12.46l-12.54-.61-26.23-1.27Z"/>
          <g>
            <path class="cls-5" d="M59.1,93.68c0-2.38-.54-4.65-1.5-6.66-2.5-5.23-7.83-8.85-14.01-8.85l-37.82-1.88"/>
            <path class="cls-5" d="M57.6,90.99c-2.5-5.23-7.83-8.85-14.01-8.85H6.72"/>
          </g>
        </g>
        <g>
          <path class="cls-3" d="M67.38,46.91c-1.18.44-2.08,1.16-2.13,2.52-.05,1.54-.26,3.06-.64,4.54-.6,2.31,0,4.38,1.07,6.39.03-.03.07-.05.08-.09.25-.62.51-1.23.75-1.85,1.31-3.4,2.33-6.86,2.32-10.55,0-1.51.02-1.52-1.44-.98Z"/>
          <path class="cls-3" d="M52.91,49.33c-.02-.9-.55-1.57-1.32-2.04-.56-.34-1.18-.51-1.8-.67-.38-.1-.44.04-.45.39-.14,4.74,1.31,9.09,3.16,13.48.2-.5.33-.92.53-1.3.8-1.57.93-3.21.57-4.92-.34-1.63-.65-3.26-.69-4.94Z"/>
          <path class="cls-2" d="M63.24,62.91c-.4-1.08-.75-2.18-1.21-3.24-.74-1.69-.87-3.42-.58-5.22.29-1.84.7-3.66.79-5.53.09-1.89,1.14-3.27,2.75-4.23,1.16-.69,2.43-1.03,3.81-1.24-.1-.11-.14-.19-.2-.24-.91-.67-1.65-1.49-2.07-2.55-.14-.35-.3-.44-.69-.4-1.64.2-3-.36-4.11-1.59-.16-.18-.21-.56-.65-.38-.42.17-.48.42-.47.82.02,1.76,0,3.51.02,5.27,0,.42-.09.6-.55.57-.62-.04-1.25-.05-1.87,0-.55.04-.66-.17-.66-.67.03-1.78,0-3.56.02-5.33,0-.36-.16-.49-.44-.63-.32-.16-.42.03-.58.23-.96,1.16-2.19,1.78-3.71,1.77-.17,0-.36-.07-.45.17-.48,1.26-1.37,2.2-2.53,3.02.95.24,1.81.44,2.62.82,2.13,1,3.41,2.6,3.51,5,.05,1.21.19,2.4.47,3.56.63,2.66.54,5.21-.67,7.73-.62,1.29-1.12,2.67-1.3,4.11-.07.55.07,1.14-.09,1.65-.18.55.01.9.33,1.25,1.91,2.14,4.93,2.61,7.38,1.08,1-.62,1.98-1.24,1.67-2.8-.2-.99-.17-2.03-.53-2.99Z"/>
          <path class="cls-2" d="M54.25,31.58c.2.1.4.2.57.34.27.22.44.14.65-.11.89-1.03,2.04-1.69,3.25-2.26.24-.11.45-.12.7,0,1.18.54,2.31,1.17,3.16,2.16.32.37.51.36.92.14.76-.41,1.45-1.19,2.53-.57-.25-1.58-.48-3.06-.71-4.55-.05-.33-.3-.27-.51-.27-.87,0-1.73,0-2.6,0-2.97,0-5.95,0-8.92,0-.23,0-.55-.15-.61.29-.2,1.49-.41,2.98-.65,4.64.91-.69,1.55-.14,2.22.2Z"/>
          <path class="cls-2" d="M53.58,23.37c3.66,0,7.33,0,11.1,0-.37-1.1-.85-2.03-1.64-2.78-.27-.25-.48-.32-.83-.02-1.96,1.69-4.33,1.68-6.27,0-.31-.27-.55-.29-.89-.17-1.01.36-1.82,1.53-1.86,2.63-.01.34.14.35.39.35Z"/>
          <path class="cls-2" d="M49.23,38.42c-.5-.53-.75-1.25-.85-1.99-.03-.22-.03-.44-.22-.6-.87-.75-1.78-1.43-2.76-2.01-.15.15-.08.29-.07.41.29,2.18,1.12,4.13,2.48,5.85.61.78.72.77,1.33-.03.05-.07.1-.15.15-.22.31-.48.43-.9-.05-1.41Z"/>
          <path class="cls-2" d="M71.08,34.96c-.71.5-1.4,1-1.43,2,0,.23-.12.49-.25.68-.65.94-.19,1.71.32,2.49.2.31.36.3.59,0,1.44-1.84,2.31-3.91,2.57-6.44-.7.49-1.25.87-1.81,1.26Z"/>
          <path class="cls-3" d="M59.08,18.77c.84,0,1.52-.68,1.54-1.52.02-.85-.64-1.55-1.47-1.58-.86-.03-1.6.66-1.61,1.52,0,.88.69,1.59,1.54,1.59Z"/>
          <path class="cls-3" d="M63.71,35.84c0,.7.74,1.38,1.51,1.39.78,0,1.53-.65,1.56-1.36.02-.4-1.13-1.5-1.56-1.48-.41.01-1.51,1.07-1.52,1.45Z"/>
          <path class="cls-2" d="M57.55,34.31c0,.71.75,1.38,1.53,1.39.78,0,1.51-.65,1.54-1.37.01-.4-1.15-1.51-1.56-1.48-.41.03-1.51,1.1-1.51,1.47Z"/>
          <path class="cls-3" d="M52.84,37.23c.81.04,1.59-.62,1.61-1.36.01-.39-1.03-1.44-1.48-1.48-.4-.04-1.6,1.05-1.6,1.45,0,.66.73,1.35,1.47,1.39Z"/>
        </g>
        <g>
          <path class="cls-2" d="M113.3,71.51l-.61,4.82-.74,5.81-.62,4.87-.85,6.66h-43.98c0,.58-.24,1.11-.62,1.49-.33.34-.77.57-1.27.61-.05,0-.09,0-.14,0h-5.45v-6.88c0-.64.04-1.27.11-1.89.04-.32.08-.62.15-.93,0-.08.03-.15.05-.23,1.4-7.1,7.69-12.46,15.2-12.46l12.54-.61,26.23-1.27Z"/>
          <g>
            <path class="cls-5" d="M59.4,93.68c0-2.38.54-4.65,1.5-6.66,2.5-5.23,7.83-8.85,14.01-8.85l37.82-1.88"/>
            <path class="cls-5" d="M60.9,90.99c2.5-5.23,7.83-8.85,14.01-8.85h36.87"/>
          </g>
        </g>
        <path class="cls-1" d="M118.64,87.01v6.66h-52.07c0,.58-.24,1.11-.62,1.49-.35.36-.82.58-1.35.61-.05,0-.09,0-.14,0h-5.14v-8.77h59.33Z"/>
        <path class="cls-4" d="M59.32,87.01v8.77h-5.14s-.08,0-.12,0c-1.1-.06-1.99-.97-1.99-2.1H0v-6.66h59.32Z"/>
      </g>
    </g>
  </g>
</svg>